<mxfile host="www.draw.io" modified="2020-01-05T08:29:07.772Z" agent="Mozilla/5.0 (Windows NT 6.2; Win64; x64) AppleWebKit/537.36 (KHTML, like Gecko) Chrome/79.0.3945.88 Safari/537.36" etag="qnndUQ1xCYu_MRYzTVjj" version="12.4.8" type="github">
  <diagram id="KFPWuCin9HiiDJ0GUUOY" name="Page-1">
    <mxGraphModel dx="773" dy="427" grid="1" gridSize="10" guides="1" tooltips="1" connect="1" arrows="1" fold="1" page="1" pageScale="1" pageWidth="827" pageHeight="1169" math="0" shadow="0">
      <root>
        <mxCell id="0"/>
        <mxCell id="1" parent="0"/>
        <mxCell id="gE9azoA6skdPwoxY1DG7-1" value="1" style="rounded=0;whiteSpace=wrap;html=1;fillColor=#fff2cc;strokeColor=#d6b656;" parent="1" vertex="1">
          <mxGeometry x="59" y="161" width="40" height="20" as="geometry"/>
        </mxCell>
        <mxCell id="gE9azoA6skdPwoxY1DG7-3" value="2" style="rounded=0;whiteSpace=wrap;html=1;fillColor=#fff2cc;strokeColor=#d6b656;" parent="1" vertex="1">
          <mxGeometry x="99" y="161" width="40" height="20" as="geometry"/>
        </mxCell>
        <mxCell id="gE9azoA6skdPwoxY1DG7-4" value="....." style="rounded=0;whiteSpace=wrap;html=1;fillColor=#fff2cc;strokeColor=#d6b656;" parent="1" vertex="1">
          <mxGeometry x="139" y="161" width="40" height="20" as="geometry"/>
        </mxCell>
        <mxCell id="gE9azoA6skdPwoxY1DG7-5" value="10" style="rounded=0;whiteSpace=wrap;html=1;fillColor=#fff2cc;strokeColor=#d6b656;" parent="1" vertex="1">
          <mxGeometry x="179" y="161" width="40" height="20" as="geometry"/>
        </mxCell>
        <mxCell id="gE9azoA6skdPwoxY1DG7-14" value="Group-1(A/B/C)" style="text;html=1;strokeColor=none;fillColor=none;align=center;verticalAlign=middle;whiteSpace=wrap;rounded=0;" parent="1" vertex="1">
          <mxGeometry x="59" y="134" width="91" height="20" as="geometry"/>
        </mxCell>
        <mxCell id="fr3NvGy1mizli_2LA55X-1" value="" style="endArrow=classic;html=1;exitX=1;exitY=0.5;exitDx=0;exitDy=0;entryX=0;entryY=0.5;entryDx=0;entryDy=0;" parent="1" source="gE9azoA6skdPwoxY1DG7-5" target="Z-9ciATT1iBqPtGaTnoY-5" edge="1">
          <mxGeometry width="50" height="50" relative="1" as="geometry">
            <mxPoint x="60" y="357" as="sourcePoint"/>
            <mxPoint x="250" y="171" as="targetPoint"/>
          </mxGeometry>
        </mxCell>
        <mxCell id="Z-9ciATT1iBqPtGaTnoY-1" value="1" style="rounded=0;whiteSpace=wrap;html=1;fillColor=#fff2cc;strokeColor=#d6b656;" parent="1" vertex="1">
          <mxGeometry x="280" y="97" width="40" height="20" as="geometry"/>
        </mxCell>
        <mxCell id="Z-9ciATT1iBqPtGaTnoY-2" value="2" style="rounded=0;whiteSpace=wrap;html=1;fillColor=#fff2cc;strokeColor=#d6b656;" parent="1" vertex="1">
          <mxGeometry x="320" y="97" width="40" height="20" as="geometry"/>
        </mxCell>
        <mxCell id="Z-9ciATT1iBqPtGaTnoY-3" value="....." style="rounded=0;whiteSpace=wrap;html=1;fillColor=#fff2cc;strokeColor=#d6b656;" parent="1" vertex="1">
          <mxGeometry x="360" y="97" width="40" height="20" as="geometry"/>
        </mxCell>
        <mxCell id="Z-9ciATT1iBqPtGaTnoY-4" value="to A" style="text;html=1;strokeColor=none;fillColor=none;align=center;verticalAlign=middle;whiteSpace=wrap;rounded=0;" parent="1" vertex="1">
          <mxGeometry x="280" y="70" width="51" height="20" as="geometry"/>
        </mxCell>
        <mxCell id="Z-9ciATT1iBqPtGaTnoY-5" value="1" style="rounded=0;whiteSpace=wrap;html=1;fillColor=#fff2cc;strokeColor=#d6b656;" parent="1" vertex="1">
          <mxGeometry x="280" y="161" width="40" height="20" as="geometry"/>
        </mxCell>
        <mxCell id="Z-9ciATT1iBqPtGaTnoY-6" value="2" style="rounded=0;whiteSpace=wrap;html=1;fillColor=#fff2cc;strokeColor=#d6b656;" parent="1" vertex="1">
          <mxGeometry x="320" y="161" width="40" height="20" as="geometry"/>
        </mxCell>
        <mxCell id="Z-9ciATT1iBqPtGaTnoY-7" value="....." style="rounded=0;whiteSpace=wrap;html=1;fillColor=#fff2cc;strokeColor=#d6b656;" parent="1" vertex="1">
          <mxGeometry x="360" y="161" width="40" height="20" as="geometry"/>
        </mxCell>
        <mxCell id="Z-9ciATT1iBqPtGaTnoY-8" value="to B" style="text;html=1;strokeColor=none;fillColor=none;align=center;verticalAlign=middle;whiteSpace=wrap;rounded=0;" parent="1" vertex="1">
          <mxGeometry x="280" y="134" width="51" height="20" as="geometry"/>
        </mxCell>
        <mxCell id="Z-9ciATT1iBqPtGaTnoY-9" value="1" style="rounded=0;whiteSpace=wrap;html=1;fillColor=#fff2cc;strokeColor=#d6b656;" parent="1" vertex="1">
          <mxGeometry x="280" y="217" width="40" height="20" as="geometry"/>
        </mxCell>
        <mxCell id="Z-9ciATT1iBqPtGaTnoY-10" value="2" style="rounded=0;whiteSpace=wrap;html=1;fillColor=#fff2cc;strokeColor=#d6b656;" parent="1" vertex="1">
          <mxGeometry x="320" y="217" width="40" height="20" as="geometry"/>
        </mxCell>
        <mxCell id="Z-9ciATT1iBqPtGaTnoY-11" value="....." style="rounded=0;whiteSpace=wrap;html=1;fillColor=#fff2cc;strokeColor=#d6b656;" parent="1" vertex="1">
          <mxGeometry x="360" y="217" width="40" height="20" as="geometry"/>
        </mxCell>
        <mxCell id="Z-9ciATT1iBqPtGaTnoY-12" value="to C" style="text;html=1;strokeColor=none;fillColor=none;align=center;verticalAlign=middle;whiteSpace=wrap;rounded=0;" parent="1" vertex="1">
          <mxGeometry x="280" y="190" width="51" height="20" as="geometry"/>
        </mxCell>
        <mxCell id="Z-9ciATT1iBqPtGaTnoY-13" value="" style="endArrow=classic;html=1;entryX=0;entryY=0.5;entryDx=0;entryDy=0;" parent="1" target="Z-9ciATT1iBqPtGaTnoY-1" edge="1">
          <mxGeometry width="50" height="50" relative="1" as="geometry">
            <mxPoint x="220" y="170" as="sourcePoint"/>
            <mxPoint x="110" y="260" as="targetPoint"/>
          </mxGeometry>
        </mxCell>
        <mxCell id="Z-9ciATT1iBqPtGaTnoY-14" value="" style="endArrow=classic;html=1;entryX=0;entryY=0.5;entryDx=0;entryDy=0;" parent="1" target="Z-9ciATT1iBqPtGaTnoY-9" edge="1">
          <mxGeometry width="50" height="50" relative="1" as="geometry">
            <mxPoint x="220" y="170" as="sourcePoint"/>
            <mxPoint x="290" y="117" as="targetPoint"/>
          </mxGeometry>
        </mxCell>
        <mxCell id="101Bcb9vVjIYMDVd_feA-1" value="10" style="rounded=0;whiteSpace=wrap;html=1;fillColor=#fff2cc;strokeColor=#d6b656;" vertex="1" parent="1">
          <mxGeometry x="400" y="97" width="40" height="20" as="geometry"/>
        </mxCell>
        <mxCell id="101Bcb9vVjIYMDVd_feA-2" value="10" style="rounded=0;whiteSpace=wrap;html=1;fillColor=#fff2cc;strokeColor=#d6b656;" vertex="1" parent="1">
          <mxGeometry x="400" y="161" width="40" height="20" as="geometry"/>
        </mxCell>
        <mxCell id="101Bcb9vVjIYMDVd_feA-3" value="10" style="rounded=0;whiteSpace=wrap;html=1;fillColor=#fff2cc;strokeColor=#d6b656;" vertex="1" parent="1">
          <mxGeometry x="400" y="217" width="40" height="20" as="geometry"/>
        </mxCell>
      </root>
    </mxGraphModel>
  </diagram>
</mxfile>
